<?xml version="1.0" standalone="no"?>
<!DOCTYPE svg PUBLIC "-//W3C//DTD SVG 20010904//EN"
 "http://www.w3.org/TR/2001/REC-SVG-20010904/DTD/svg10.dtd">
<svg version="1.0" xmlns="http://www.w3.org/2000/svg"
 viewBox="0 0 840.000000 572.000000"
 preserveAspectRatio="xMidYMid meet">

<g transform="translate(0.000000,572.000000) scale(0.100000,-0.100000)"
fill="#ff0000" stroke="none">
<path d="M4030 5414 c-19 -2 -80 -9 -135 -15 -293 -30 -633 -136 -905 -280
-371 -197 -707 -507 -943 -869 -197 -304 -330 -668 -384 -1050 -21 -152 -23
-508 -4 -650 80 -592 319 -1086 721 -1491 142 -143 247 -230 405 -334 327
-217 697 -353 1110 -406 145 -19 501 -17 650 5 566 80 1069 330 1465 726 859
858 994 2207 325 3225 -103 156 -190 262 -334 405 -397 394 -884 633 -1455
716 -99 14 -447 26 -516 18z m-227 -1759 l397 -395 393 395 c216 217 398 395
403 395 5 0 97 -88 204 -195 l195 -195 -400 -400 -399 -399 397 -396 c218
-218 397 -399 397 -403 0 -9 -383 -392 -392 -392 -4 0 -185 179 -403 397
l-396 397 -399 -399 -400 -400 -195 195 c-107 107 -195 198 -195 203 0 4 176
184 390 399 215 215 390 395 390 400 0 5 -143 152 -317 327 -175 175 -352 352
-393 395 l-74 77 194 194 c107 107 197 195 201 195 3 0 184 -178 402 -395z"/>
</g>
</svg>
